<svg xmlns="http://www.w3.org/2000/svg" width="819.609" height="529.942"><style>.st0{fill:#333}.st3{fill:#e2e2e2}.st5{fill:none}.st6{fill:#fff}.st9{fill:#faa31b}</style><g id="Layer_2"><path class="st0" d="M269.387 29.628H265.2v-2.15h10.712v2.15h-4.187V40.68h-2.338V29.628zM279.53 27.479h5.884c1.66 0 2.961.49 3.81 1.32.698.717 1.094 1.698 1.094 2.848v.038c0 2.169-1.301 3.47-3.131 3.998l3.564 4.998h-2.753l-3.244-4.602h-2.904v4.602h-2.32V27.479zm5.715 6.544c1.66 0 2.716-.867 2.716-2.207v-.038c0-1.415-1.019-2.188-2.735-2.188h-3.376v4.432h3.395zM299.009 27.384h2.15l5.809 13.296h-2.452l-1.339-3.188h-6.242l-1.358 3.188h-2.376l5.808-13.296zm3.32 8.053l-2.282-5.281-2.263 5.281h4.545zM310.397 27.479h2.15l7.072 9.128v-9.128h2.282V40.68h-1.943l-7.279-9.392v9.392h-2.282V27.479zM325.576 38.756l1.396-1.66c1.264 1.094 2.546 1.716 4.168 1.716 1.434 0 2.339-.679 2.339-1.66v-.038c0-.943-.528-1.452-2.98-2.018-2.81-.679-4.395-1.509-4.395-3.942v-.038c0-2.263 1.887-3.829 4.508-3.829 1.924 0 3.451.585 4.791 1.66l-1.245 1.754c-1.188-.886-2.376-1.358-3.583-1.358-1.358 0-2.15.698-2.15 1.565v.038c0 1.019.604 1.471 3.149 2.075 2.791.679 4.225 1.679 4.225 3.866v.038c0 2.47-1.942 3.941-4.715 3.941-2.019.003-3.924-.695-5.508-2.11zM344.094 27.384h2.15l5.809 13.296h-2.452l-1.339-3.188h-6.242l-1.358 3.188h-2.376l5.808-13.296zm3.319 8.053l-2.282-5.281-2.263 5.281h4.545zM354.067 34.117v-.038c0-3.753 2.811-6.827 6.809-6.827 2.433 0 3.904.849 5.168 2.056l-1.49 1.716c-1.057-.981-2.188-1.641-3.696-1.641-2.509 0-4.356 2.074-4.356 4.658v.038c0 2.584 1.829 4.677 4.356 4.677 1.622 0 2.659-.641 3.791-1.697l1.489 1.509c-1.377 1.433-2.886 2.338-5.356 2.338-3.847 0-6.715-2.998-6.715-6.789zM372.98 29.628h-4.187v-2.15h10.712v2.15h-4.187V40.68h-2.339V29.628zM383.257 27.479h2.319V40.68h-2.319V27.479zM389.686 34.117v-.038c0-3.715 2.867-6.827 6.922-6.827s6.884 3.074 6.884 6.79v.038c0 3.715-2.867 6.827-6.922 6.827s-6.884-3.074-6.884-6.79zm11.373 0v-.038c0-2.565-1.867-4.696-4.489-4.696-2.621 0-4.45 2.093-4.45 4.658v.038c0 2.565 1.866 4.677 4.488 4.677 2.621 0 4.451-2.074 4.451-4.639zM407.467 27.479h2.15l7.072 9.128v-9.128h2.282V40.68h-1.943l-7.279-9.392v9.392h-2.282V27.479zM428.209 27.384h2.15l5.809 13.296h-2.451l-1.34-3.188h-6.242l-1.357 3.188H422.4l5.809-13.296zm3.319 8.053l-2.281-5.281-2.264 5.281h4.545zM439.597 27.479h2.32v11.089h6.94v2.112h-9.261V27.479zM458.377 38.756l1.396-1.66c1.264 1.094 2.547 1.716 4.168 1.716 1.434 0 2.339-.679 2.339-1.66v-.038c0-.943-.528-1.452-2.979-2.018-2.811-.679-4.395-1.509-4.395-3.942v-.038c0-2.263 1.886-3.829 4.508-3.829 1.924 0 3.451.585 4.79 1.66l-1.245 1.754c-1.188-.886-2.376-1.358-3.583-1.358-1.357 0-2.15.698-2.15 1.565v.038c0 1.019.604 1.471 3.15 2.075 2.791.679 4.225 1.679 4.225 3.866v.038c0 2.47-1.943 3.941-4.716 3.941-2.019.003-3.924-.695-5.508-2.11zM475.819 35.475l-5.243-7.996h2.754l3.678 5.828 3.734-5.828h2.659l-5.243 7.94v5.262h-2.339v-5.206zM485.059 38.756l1.396-1.66c1.264 1.094 2.546 1.716 4.168 1.716 1.434 0 2.339-.679 2.339-1.66v-.038c0-.943-.528-1.452-2.98-2.018-2.81-.679-4.395-1.509-4.395-3.942v-.038c0-2.263 1.887-3.829 4.508-3.829 1.924 0 3.451.585 4.791 1.66l-1.245 1.754c-1.188-.886-2.376-1.358-3.583-1.358-1.358 0-2.15.698-2.15 1.565v.038c0 1.019.604 1.471 3.149 2.075 2.791.679 4.225 1.679 4.225 3.866v.038c0 2.47-1.942 3.941-4.715 3.941-2.019.003-3.924-.695-5.508-2.11zM502.143 29.628h-4.188v-2.15h10.713v2.15h-4.188V40.68h-2.338V29.628zM512.286 27.479h9.788v2.074h-7.469v3.433h6.62v2.075h-6.62v3.545h7.563v2.075h-9.883V27.479zM526.089 27.479h2.471l4.017 6.242 4.018-6.242h2.471V40.68h-2.32v-9.468l-4.168 6.224h-.075l-4.13-6.187v9.43h-2.282v-13.2zM542.738 38.756l1.396-1.66c1.264 1.094 2.546 1.716 4.168 1.716 1.434 0 2.339-.679 2.339-1.66v-.038c0-.943-.528-1.452-2.98-2.018-2.81-.679-4.395-1.509-4.395-3.942v-.038c0-2.263 1.887-3.829 4.508-3.829 1.924 0 3.451.585 4.791 1.66l-1.245 1.754c-1.188-.886-2.376-1.358-3.583-1.358-1.358 0-2.15.698-2.15 1.565v.038c0 1.019.604 1.471 3.149 2.075 2.791.679 4.225 1.679 4.225 3.866v.038c0 2.47-1.942 3.941-4.715 3.941-2.018.003-3.924-.695-5.508-2.11zM124.064 147.455h4.922c4.149 0 7.016 2.848 7.016 6.563v.038c0 3.715-2.867 6.601-7.016 6.601h-4.922v-13.202zm2.32 2.112v8.978h2.603c2.772 0 4.583-1.867 4.583-4.451v-.037c0-2.584-1.811-4.489-4.583-4.489h-2.603zM143.732 147.361h2.15l5.809 13.296h-2.452l-1.339-3.188h-6.242l-1.358 3.188h-2.376l5.808-13.296zm3.32 8.053l-2.282-5.28-2.263 5.28h4.545zM156.667 149.605h-4.187v-2.15h10.712v2.15h-4.187v11.052h-2.338v-11.052zM169.791 147.361h2.15l5.809 13.296h-2.452l-1.339-3.188h-6.242l-1.358 3.188h-2.376l5.808-13.296zm3.319 8.053l-2.282-5.28-2.263 5.28h4.545zM192.682 147.361h2.15l5.809 13.296h-2.452l-1.339-3.188h-6.242l-1.358 3.188h-2.376l5.808-13.296zm3.319 8.053l-2.282-5.28-2.263 5.28h4.545zM204.069 147.455h5.884c1.66 0 2.961.49 3.81 1.32.698.717 1.094 1.697 1.094 2.848v.038c0 2.169-1.301 3.47-3.131 3.998l3.564 4.998h-2.753l-3.244-4.602h-2.904v4.602h-2.32v-13.202zm5.715 6.545c1.66 0 2.716-.868 2.716-2.207v-.038c0-1.414-1.019-2.188-2.735-2.188h-3.376V154h3.395zM218.287 154.093v-.037c0-3.754 2.81-6.827 6.808-6.827 2.433 0 3.904.849 5.168 2.056l-1.49 1.716c-1.056-.98-2.188-1.641-3.696-1.641-2.508 0-4.356 2.074-4.356 4.658v.038c0 2.583 1.829 4.677 4.356 4.677 1.622 0 2.659-.641 3.791-1.697l1.49 1.509c-1.377 1.434-2.886 2.339-5.356 2.339-3.849-.001-6.715-3-6.715-6.791zM233.956 147.455h2.32v5.488h6.299v-5.488h2.32v13.202h-2.32v-5.563h-6.299v5.563h-2.32v-13.202zM249.588 147.455h2.319v13.202h-2.319v-13.202zM255.47 147.455h2.565l3.979 10.146 3.96-10.146h2.508l-5.469 13.297h-2.056l-5.487-13.297zM271.913 147.455h9.789v2.075h-7.469v3.432h6.62v2.075h-6.62v3.546h7.563v2.074h-9.883v-13.202z"/><g><path class="st0" d="M296.143 261.81h4.922c4.149 0 7.016 2.848 7.016 6.563v.038c0 3.715-2.866 6.601-7.016 6.601h-4.922V261.81zm2.32 2.112v8.978h2.603c2.772 0 4.583-1.867 4.583-4.451v-.037c0-2.584-1.811-4.489-4.583-4.489h-2.603zM310.304 261.81h2.509l3.149 9.788 3.243-9.825h1.962l3.244 9.825 3.149-9.788h2.433l-4.583 13.297h-2.018l-3.244-9.487-3.244 9.487h-1.999l-4.601-13.297zM346.716 259.962h1.98l-8.524 17.464h-1.98l8.524-17.464zM358.179 261.81h5.922c1.509 0 2.697.415 3.451 1.17.585.584.887 1.301.887 2.188v.038c0 1.584-.905 2.433-1.886 2.941 1.546.528 2.621 1.415 2.621 3.206v.038c0 2.357-1.942 3.621-4.885 3.621h-6.11V261.81zm7.939 3.734c0-1.037-.829-1.679-2.319-1.679h-3.338v3.508h3.168c1.49 0 2.489-.584 2.489-1.791v-.038zm-1.979 3.792h-3.678v3.621h3.847c1.585 0 2.547-.622 2.547-1.811v-.038c-.001-1.112-.887-1.772-2.716-1.772zM373.094 261.81h2.319v13.202h-2.319V261.81zM393.289 259.962h1.979l-8.524 17.464h-1.98l8.525-17.464zM409.429 261.716h2.149l5.81 13.296h-2.452l-1.339-3.188h-6.243l-1.357 3.188h-2.376l5.808-13.296zm3.319 8.053l-2.282-5.28-2.263 5.28h4.545zM420.816 261.81h2.15l7.072 9.128v-9.128h2.282v13.202h-1.942l-7.28-9.393v9.393h-2.282V261.81zM441.559 261.716h2.15l5.809 13.296h-2.451l-1.34-3.188h-6.242l-1.358 3.188h-2.376l5.808-13.296zm3.319 8.053l-2.281-5.28-2.264 5.28h4.545zM452.946 261.81h2.32v11.09h6.94v2.112h-9.261V261.81zM467.222 269.807l-5.243-7.997h2.753l3.678 5.828 3.734-5.828h2.659l-5.243 7.94v5.262h-2.338v-5.205zM481.25 263.961h-4.187v-2.15h10.712v2.15h-4.187v11.052h-2.339v-11.052zM491.526 261.81h2.319v13.202h-2.319V261.81zM497.955 268.449v-.037c0-3.754 2.811-6.827 6.809-6.827 2.433 0 3.904.849 5.168 2.056l-1.49 1.716c-1.057-.98-2.188-1.641-3.696-1.641-2.509 0-4.357 2.074-4.357 4.658v.038c0 2.583 1.83 4.677 4.357 4.677 1.622 0 2.659-.641 3.79-1.697l1.49 1.509c-1.377 1.434-2.886 2.339-5.356 2.339-3.848-.001-6.715-3-6.715-6.791zM512.738 273.088l1.396-1.659c1.264 1.094 2.546 1.716 4.168 1.716 1.434 0 2.339-.679 2.339-1.659v-.038c0-.943-.528-1.452-2.98-2.018-2.81-.68-4.395-1.51-4.395-3.942v-.037c0-2.264 1.887-3.829 4.508-3.829 1.924 0 3.451.585 4.79 1.66l-1.244 1.754c-1.188-.887-2.377-1.358-3.584-1.358-1.357 0-2.149.698-2.149 1.565v.038c0 1.019.604 1.471 3.149 2.074 2.791.679 4.225 1.679 4.225 3.866v.038c0 2.471-1.942 3.941-4.715 3.941-2.019.001-3.924-.697-5.508-2.112z"/></g><g><path class="st0" d="M196.135 201.128h5.97v16.024h-5.97z"/><path class="st0" d="M208.05 214.54l-8.93 15.466-8.931-15.466zM208.05 203.741l-8.93-15.466-8.931 15.466z"/></g><linearGradient id="SVGID_1_" gradientUnits="userSpaceOnUse" x1="125.898" y1="417.171" x2="407.726" y2="274.019" gradientTransform="matrix(.9863 0 0 1.1211 -64.038 -234.358)"><stop offset="0" stop-color="#17c9c0"/><stop offset=".168" stop-color="#00a9d7"/><stop offset=".564" stop-color="#1cd0bb"/><stop offset="1" stop-color="#0fbec8"/></linearGradient><path d="M359.194 186.125H39.045v-66.092h320.149v66.092zm-315.115-5.034h310.082v-56.025H44.079v56.025z" fill="url(#SVGID_1_)"/><linearGradient id="SVGID_2_" gradientUnits="userSpaceOnUse" x1="101.74" y1="189.581" x2="717.869" y2="-123.378"><stop offset="0" stop-color="#17c9c0"/><stop offset=".168" stop-color="#00a9d7"/><stop offset=".564" stop-color="#1cd0bb"/><stop offset="1" stop-color="#0fbec8"/></linearGradient><path d="M780.566 66.148H39.043V.055h741.523v66.093zM44.077 61.115h731.456V5.089H44.077v56.026z" fill="url(#SVGID_2_)"/><g><path class="st0" d="M617.505 65.415h5.971v32.878h-5.971z"/><path class="st0" d="M629.42 95.679l-8.93 15.466-8.931-15.466z"/></g><g><path class="st0" d="M196.135 65.415h5.97v32.878h-5.97z"/><path class="st0" d="M208.05 95.679l-8.93 15.466-8.931-15.466z"/></g><g><path class="st0" d="M377.617 151.093h66.024v5.971h-66.024z"/><path class="st0" d="M380.23 163.009l-15.466-8.93 15.466-8.931zM441.029 163.009l15.466-8.93-15.466-8.931z"/></g><g><path class="st3" d="M287.095 354.463h3.228v2.582h-3.228zM197.698 380.587h-2.066v-2.582h2.066c1.35 0 2.662-.252 3.901-.75l.962 2.396a12.967 12.967 0 0 1-4.863.936zm-6.001 0h-6.557v-2.582h6.557v2.582zm-10.491 0h-6.557v-2.582h6.557v2.582zm-10.492 0h-6.557v-2.582h6.557v2.582zm-10.492 0h-6.557v-2.582h6.557v2.582zm-10.492 0h-6.557v-2.582h6.557v2.582zm-10.491 0h-6.557v-2.582h6.557v2.582zm-10.492 0h-6.557v-2.582h6.557v2.582zm-10.492 0h-6.557v-2.582h6.557v2.582zm-10.491 0h-6.558v-2.582h6.558v2.582zm-10.492 0h-6.558v-2.582h6.558v2.582zm-10.492 0h-6.558v-2.582h6.558v2.582zm-10.491 0h-6.558v-2.582h6.558v2.582zm-10.492 0h-6.558v-2.582h6.558v2.582zm-10.492 0h-6.558v-2.582h6.558v2.582zm150.962-3.202l-1.695-1.947a10.486 10.486 0 0 0 3.146-4.828l2.468.758a13.054 13.054 0 0 1-3.919 6.017zm4.5-10.234l-2.581-.09a13.019 13.019 0 0 1 2.218-6.83l2.141 1.443a10.429 10.429 0 0 0-1.778 5.477zm4.179-8.006l-1.553-2.062a13.013 13.013 0 0 1 6.708-2.57l.223 2.572a10.425 10.425 0 0 0-5.378 2.06zm68.215-2.1h-6.557v-2.582h6.557v2.582zm-10.492 0h-6.557v-2.582h6.557v2.582zm-10.492 0h-6.557v-2.582h6.557v2.582zm-10.491 0h-6.557v-2.582h6.557v2.582zm-10.492 0h-6.558v-2.582h6.558v2.582zm-10.492 0h-6.558v-2.582h6.558v2.582zM41.56 378.005h3.228v2.582H41.56z"/></g><path class="st3" d="M730.312 449.302h-6.455v-2.582h6.455v2.582zm-10.328 0h-6.456v-2.582h6.456v2.582zm-10.329 0H703.2v-2.582h6.455v2.582zm-10.329 0h-6.455v-2.582h6.455v2.582zm-10.328 0h-6.456v-2.582h6.456v2.582zm-10.329 0h-6.455v-2.582h6.455v2.582zm-10.328 0h-6.456v-2.582h6.456v2.582zm-10.329 0h-6.455v-2.582h6.455v2.582zm-10.329 0h-6.455v-2.582h6.455v2.582zm-10.329 0h-5.815c-.233 0-.465-.004-.694-.014l.107-2.58c.194.008.389.012.587.012h5.815v2.582zm-10.628-.683a17.068 17.068 0 0 1-6.125-3.244l1.645-1.992a14.519 14.519 0 0 0 5.203 2.758l-.723 2.478zm-9-6.273a17.048 17.048 0 0 1-2.92-6.286l2.514-.59a14.49 14.49 0 0 0 2.48 5.339l-2.074 1.537zm-3.375-10.407a14.486 14.486 0 0 0-1.252-5.753l2.359-1.049a17.093 17.093 0 0 1 1.475 6.771l-2.582.031zm-3.079-8.795a14.602 14.602 0 0 0-4.479-3.826l1.248-2.26a17.135 17.135 0 0 1 5.269 4.5l-2.038 1.586zm-7.771-5.148a14.68 14.68 0 0 0-3.757-.487h-2.32v-2.582h2.32c1.496 0 2.982.192 4.419.573l-.662 2.496zm-9.95-.488h-6.456v-2.582h6.456v2.582zm-10.329 0h-6.455v-2.582h6.455v2.582zm-10.329 0h-6.455v-2.582h6.455v2.582z"/><linearGradient id="SVGID_3_" gradientUnits="userSpaceOnUse" x1="54.988" y1="561.217" x2="764.621" y2="200.764"><stop offset="0" stop-color="#17c9c0"/><stop offset=".168" stop-color="#00a9d7"/><stop offset=".564" stop-color="#1cd0bb"/><stop offset="1" stop-color="#0fbec8"/></linearGradient><path d="M780.566 529.825H39.042V232.157h741.524v297.668zm-736.489-5.033h731.457V237.19H44.077v287.602z" fill="url(#SVGID_3_)"/><g><path class="st0" d="M148.672 363.11c-1.423.021-2.877-.059-4.301-.176l.165-1.994c1.356.113 2.735.17 4.099.17h.037c1.222 0 2.46-.046 3.682-.138l.149 1.994c-1.271.096-2.56.144-3.831.144zm10.875-1.169l-.425-1.955a48.516 48.516 0 0 0 7.477-2.27l.733 1.861a50.656 50.656 0 0 1-7.785 2.364zm-22.211-.086a50.849 50.849 0 0 1-7.771-2.427l.748-1.855a48.667 48.667 0 0 0 7.463 2.331l-.44 1.951zm36.417-5.341l-.985-1.74a49.298 49.298 0 0 0 6.472-4.379l1.249 1.562a51.167 51.167 0 0 1-6.736 4.557zm-50.592-.204a51.267 51.267 0 0 1-6.702-4.612l1.262-1.553a49.175 49.175 0 0 0 6.439 4.433l-.999 1.732zm62.566-9.172l-1.452-1.375a49.334 49.334 0 0 0 4.906-6.086l1.652 1.127a51.232 51.232 0 0 1-5.106 6.334zm-74.468-.302a51.538 51.538 0 0 1-5.053-6.372l1.661-1.115a49.422 49.422 0 0 0 4.856 6.124l-1.464 1.363zm83.169-12.179l-1.793-.887a48.883 48.883 0 0 0 2.893-7.263l1.911.588a50.945 50.945 0 0 1-3.011 7.562zm-91.764-.366a50.877 50.877 0 0 1-2.949-7.581l1.916-.574a48.933 48.933 0 0 0 2.833 7.284l-1.8.871zm96.387-14.13l-1.975-.314c.408-2.558.615-5.179.615-7.792v-.198l2-.014v.212c0 2.717-.215 5.445-.64 8.106zm-100.893-.399a51.56 51.56 0 0 1-.578-7.708l.001-.404 2 .016-.001.389c0 2.483.187 4.976.556 7.409l-1.978.298zm99.035-14.732a48.874 48.874 0 0 0-1.725-7.621l1.909-.596a50.928 50.928 0 0 1 1.795 7.934l-1.979.283zm-97.088-.186l-1.979-.291a50.948 50.948 0 0 1 1.825-7.927l1.906.604a49.142 49.142 0 0 0-1.752 7.614zm92.871-13.803a48.991 48.991 0 0 0-3.903-6.768l1.647-1.135a50.937 50.937 0 0 1 4.062 7.045l-1.806.858zm-88.598-.173l-1.804-.865a51.173 51.173 0 0 1 4.094-7.032l1.643 1.141a49.064 49.064 0 0 0-3.933 6.756zm80.434-11.947a49.528 49.528 0 0 0-5.722-5.327l1.243-1.566a51.57 51.57 0 0 1 5.953 5.542l-1.474 1.351zm-72.219-.146l-1.469-1.357a51.526 51.526 0 0 1 5.975-5.519l1.236 1.572a49.71 49.71 0 0 0-5.742 5.304zm60.854-9.048a48.995 48.995 0 0 0-7.036-3.409l.725-1.863a50.848 50.848 0 0 1 7.324 3.548l-1.013 1.724zm-49.456-.099l-1.006-1.729a51.066 51.066 0 0 1 7.331-3.516l.718 1.867a49.168 49.168 0 0 0-7.043 3.378zm35.883-5.335a49.295 49.295 0 0 0-7.727-1.17l.141-1.994a51.14 51.14 0 0 1 8.042 1.217l-.456 1.947zm-22.3-.043l-.449-1.949a51.276 51.276 0 0 1 8.046-1.188l.134 1.996a49.08 49.08 0 0 0-7.731 1.141zM157.058 379.3l-.029-8.347a.85.85 0 0 0-.848-.846h-.003l-14.368.057a.85.85 0 0 0-.845.852l.029 8.275-2 .008-.029-8.275c-.003-.759.291-1.475.828-2.016s1.25-.841 2.009-.844l14.368-.057h.011a2.852 2.852 0 0 1 2.848 2.838l.029 8.347-2 .008z"/><path transform="translate(-1.406 .583)" class="st0" d="M145.214 353.624h7.585v15.213h-7.585z"/><path class="st0" d="M148.639 270.972c22.563 0 40.99 18.357 41.078 40.922.043 10.973-4.19 21.306-11.919 29.096s-18.029 12.103-29.002 12.146h-.163c-22.563 0-40.99-18.357-41.078-40.922-.088-22.652 18.269-41.153 40.922-41.241l.162-.001m-.021 75.774a34.63 34.63 0 0 0 26.581-12.38c5.96-7.095 8.799-16.087 7.996-25.318s-5.153-17.598-12.249-23.557a34.723 34.723 0 0 0-22.295-8.128 34.632 34.632 0 0 0-26.581 12.38c-5.96 7.095-8.799 16.087-7.996 25.319.803 9.231 5.153 17.597 12.249 23.557a34.731 34.731 0 0 0 22.295 8.127m.021-77.774h-.171c-23.793.093-43.006 19.456-42.914 43.249.092 23.735 19.364 42.914 43.078 42.914h.171c23.793-.093 43.006-19.456 42.914-43.249-.093-23.735-19.365-42.914-43.078-42.914zm-.021 75.774a32.555 32.555 0 0 1-21.008-7.659c-13.825-11.612-15.619-32.233-4.007-46.058 6.466-7.698 15.726-11.666 25.049-11.666a32.557 32.557 0 0 1 21.008 7.659c13.825 11.612 15.619 32.233 4.007 46.058-6.465 7.698-15.725 11.666-25.049 11.666z"/><path class="st5" d="M131.736 299.957h34.47v26.114h-34.47z"/><path class="st0" d="M148.421 304.73c-12.051 0-18.357-2.909-18.357-5.782s6.306-5.781 18.357-5.781 18.356 2.908 18.356 5.781-6.305 5.782-18.356 5.782zm0-9.563c-10.583 0-16.357 2.498-16.357 3.781 0 1.284 5.773 3.782 16.357 3.782 10.583 0 16.356-2.498 16.356-3.782 0-1.283-5.773-3.781-16.356-3.781zM148.421 313.467c-12.051 0-18.357-2.909-18.357-5.782h2c0 1.284 5.773 3.782 16.357 3.782 10.583 0 16.356-2.498 16.356-3.782h2c0 2.873-6.305 5.782-18.356 5.782zM148.421 322.205c-12.051 0-18.357-2.908-18.357-5.781h2c0 1.283 5.773 3.781 16.357 3.781 10.583 0 16.356-2.498 16.356-3.781h2c0 2.872-6.305 5.781-18.356 5.781zM148.421 330.942c-12.051 0-18.357-2.908-18.357-5.781h2c0 1.283 5.773 3.781 16.357 3.781 10.583 0 16.356-2.498 16.356-3.781h2c0 2.873-6.305 5.781-18.356 5.781z"/><path class="st0" d="M130.079 299.037h2v26.596h-2zM164.748 299.037h2v26.596h-2z"/></g><path class="st3" d="M225.832 503.12l-.136-.005-.062.001c-2.095 0-4.291-.179-6.435-.527l.414-2.549c2.028.33 4.106.497 6.178.497l.041 2.583zm3.991-.199l-.252-2.57a38.1 38.1 0 0 0 6.133-1.114l.669 2.494a40.56 40.56 0 0 1-6.55 1.19zm-14.534-1.168a40.73 40.73 0 0 1-6.275-2.236l1.063-2.354a38.104 38.104 0 0 0 5.876 2.094l-.664 2.496zm24.89-1.247l-.912-2.416a38.08 38.08 0 0 0 5.629-2.672l1.295 2.234a40.609 40.609 0 0 1-6.012 2.854zm-34.722-2.815a41.115 41.115 0 0 1-5.477-3.786l1.637-1.998a38.336 38.336 0 0 0 5.131 3.548l-1.291 2.236zm44.09-2.208l-1.506-2.098a38.379 38.379 0 0 0 4.751-4.038l1.827 1.824a40.843 40.843 0 0 1-5.072 4.312zm-52.532-4.26a41.116 41.116 0 0 1-4.316-5.066l2.095-1.51a38.55 38.55 0 0 0 4.044 4.748l-1.823 1.828zm60.288-3.013l-1.995-1.639a38.224 38.224 0 0 0 3.552-5.127l2.235 1.293a40.86 40.86 0 0 1-3.792 5.473zm-66.779-5.408a40.762 40.762 0 0 1-2.859-6.01l2.415-.914a38.229 38.229 0 0 0 2.677 5.627l-2.233 1.297zm72.4-3.623l-2.352-1.066a38.053 38.053 0 0 0 2.1-5.872l2.495.666a40.552 40.552 0 0 1-2.243 6.272zm-76.487-6.19a40.68 40.68 0 0 1-1.197-6.548l2.569-.256c.206 2.07.583 4.133 1.121 6.132l-2.493.672zM266.006 469l-2.548-.418c.334-2.041.503-4.132.503-6.216v-.16h2.582v.148a41.088 41.088 0 0 1-.537 6.646zm-80.203-6.578l-.765-.034c0-2.22.176-4.424.524-6.573l2.549.412a38.533 38.533 0 0 0-.491 6.139l-1.817.056zm77.963-3.953a38.163 38.163 0 0 0-1.133-6.13l2.492-.676c.58 2.135.987 4.337 1.21 6.546l-2.569.26zm-74.876-5.903l-2.496-.662a40.526 40.526 0 0 1 2.23-6.277l2.354 1.062a37.956 37.956 0 0 0-2.088 5.877zm72.584-3.785a38.112 38.112 0 0 0-2.688-5.621l2.23-1.301a40.698 40.698 0 0 1 2.871 6.004l-2.413.918zm-68.791-5.426l-2.238-1.287a40.768 40.768 0 0 1 3.781-5.48l1.999 1.635a38.247 38.247 0 0 0-3.542 5.132zm64.06-3.334a38.57 38.57 0 0 0-4.054-4.739l1.819-1.832a41.233 41.233 0 0 1 4.326 5.058l-2.091 1.513zm-58.009-4.58l-1.83-1.822a41.069 41.069 0 0 1 5.063-4.32l1.511 2.094a38.394 38.394 0 0 0-4.744 4.048zm51.173-2.666a38.444 38.444 0 0 0-5.139-3.536l1.286-2.24a41.273 41.273 0 0 1 5.484 3.774l-1.631 2.002zm-43.288-3.424l-1.3-2.23a40.723 40.723 0 0 1 6.007-2.866l.917 2.414a38.035 38.035 0 0 0-5.624 2.682zm34.813-1.814a37.873 37.873 0 0 0-5.878-2.083l.658-2.496a40.37 40.37 0 0 1 6.281 2.224l-1.061 2.355zm-25.629-2.023l-.674-2.492a40.705 40.705 0 0 1 6.548-1.204l.257 2.57a38.042 38.042 0 0 0-6.131 1.126zm16.089-.835a38.62 38.62 0 0 0-6.101-.484h-.121v-2.582h.121c2.184 0 4.375.174 6.511.518l-.41 2.548z"/><g><path class="st6" d="M163.14 446.038c-.599.431-.968 1.247-.968 2.129v30.241c0 .981.535 1.869 1.362 2.257l28.184 13.192 28.184-13.192c.826-.388 1.362-1.275 1.362-2.257v-30.241c0-.81-.376-1.555-.897-1.995l-27.595-13.229a1.984 1.984 0 0 0-1.703-.009l-27.929 13.104z"/><path class="st0" d="M191.717 494.856a.982.982 0 0 1-.424-.095l-28.184-13.192c-1.177-.552-1.938-1.793-1.938-3.161v-30.241c0-1.219.518-2.318 1.385-2.941a1.14 1.14 0 0 1 .159-.093l27.928-13.104a2.978 2.978 0 0 1 2.56.013l27.595 13.229a.966.966 0 0 1 .214.138c.783.663 1.25 1.694 1.25 2.759v30.241c0 1.368-.76 2.609-1.937 3.161l-28.185 13.192a.988.988 0 0 1-.423.094zm-28.053-47.96c-.301.257-.492.745-.492 1.271v30.241c0 .597.309 1.127.786 1.351l27.759 12.993 27.76-12.993c.477-.224.785-.754.785-1.351v-30.241c0-.43-.179-.872-.462-1.157l-27.462-13.165a.98.98 0 0 0-.848-.004l-27.826 13.055z"/></g><g><path class="st0" d="M201.031 470.15a.999.999 0 0 1-1-1v-12.307a.195.195 0 0 0-.013-.067l-28.02-13.678.877-1.797 28.2 13.766a.956.956 0 0 1 .208.136c.469.396.749 1.01.749 1.641v10.727l8.07-3.823v-11.673a.179.179 0 0 0-.014-.068l-28.02-13.677.877-1.797 28.2 13.765a.956.956 0 0 1 .208.136 2.17 2.17 0 0 1 .749 1.642v12.306a.998.998 0 0 1-.572.903l-10.07 4.771a1.04 1.04 0 0 1-.429.094z"/><path class="st0" d="M201.031 470.15a.999.999 0 0 1-1-1v-12.307a.195.195 0 0 0-.013-.067l-28.02-13.678.877-1.797 28.2 13.766a.956.956 0 0 1 .208.136c.469.396.749 1.01.749 1.641v10.727l8.07-3.823v-11.673a.179.179 0 0 0-.014-.068l-28.02-13.677.877-1.797 28.2 13.765a.956.956 0 0 1 .208.136 2.17 2.17 0 0 1 .749 1.642v12.306a.998.998 0 0 1-.572.903l-10.07 4.771a1.04 1.04 0 0 1-.429.094z"/><path class="st0" d="M191.717 494.856a.982.982 0 0 1-.424-.095l-28.184-13.192c-1.177-.552-1.938-1.793-1.938-3.161v-30.241c0-1.219.518-2.318 1.385-2.941a1.14 1.14 0 0 1 .159-.093l27.928-13.104a2.978 2.978 0 0 1 2.56.013l27.595 13.229a.966.966 0 0 1 .214.138c.783.663 1.25 1.694 1.25 2.759v30.241c0 1.368-.76 2.609-1.937 3.161l-28.185 13.192a.988.988 0 0 1-.423.094zm-28.053-47.96c-.301.257-.492.745-.492 1.271v30.241c0 .597.309 1.127.786 1.351l27.759 12.993 27.76-12.993c.477-.224.785-.754.785-1.351v-30.241c0-.43-.179-.872-.462-1.157l-27.462-13.165a.98.98 0 0 0-.848-.004l-27.826 13.055z"/><path class="st0" d="M192.717 492.889h-2v-30.241c0-.43-.179-.872-.462-1.157l-27.462-13.165.864-1.803 27.595 13.229a.966.966 0 0 1 .214.138c.783.663 1.25 1.694 1.25 2.759v30.24z"/><path transform="rotate(-25.614 206.3 454.31)" class="st0" d="M190.145 453.308h32.312v1.999h-32.312z"/><path class="st0" d="M191.717 494.856a.982.982 0 0 1-.424-.095l-28.184-13.192c-1.177-.552-1.938-1.793-1.938-3.161v-30.241c0-1.219.518-2.318 1.385-2.941a1.14 1.14 0 0 1 .159-.093l27.928-13.104a2.978 2.978 0 0 1 2.56.013l27.595 13.229a.966.966 0 0 1 .214.138c.783.663 1.25 1.694 1.25 2.759v30.241c0 1.368-.76 2.609-1.937 3.161l-28.185 13.192a.988.988 0 0 1-.423.094zm-28.053-47.96c-.301.257-.492.745-.492 1.271v30.241c0 .597.309 1.127.786 1.351l27.759 12.993 27.76-12.993c.477-.224.785-.754.785-1.351v-30.241c0-.43-.179-.872-.462-1.157l-27.462-13.165a.98.98 0 0 0-.848-.004l-27.826 13.055z"/></g><g><path class="st3" d="M594.897 390.231l-.016-1.701a55.807 55.807 0 0 0 4.183-.198l.145 1.695c-1.42.122-2.871.19-4.312.204zm-2.589-.036a57.109 57.109 0 0 1-4.305-.322l.193-1.691a53.65 53.65 0 0 0 4.174.312l-.062 1.701zm9.475-.449l-.223-1.688a54.092 54.092 0 0 0 4.125-.709l.354 1.664a55.477 55.477 0 0 1-4.256.733zm-16.345-.226a56.006 56.006 0 0 1-4.233-.851l.4-1.654c1.354.327 2.734.604 4.103.825l-.27 1.68zm23.122-1.103l-.43-1.646a53.73 53.73 0 0 0 4.004-1.217l.559 1.607c-1.359.471-2.75.894-4.133 1.256zm-29.86-.416a55.407 55.407 0 0 1-4.096-1.371l.604-1.592c1.291.49 2.627.938 3.969 1.33l-.477 1.633zm36.42-1.746l-.633-1.58a53.99 53.99 0 0 0 3.82-1.703l.754 1.525a55.798 55.798 0 0 1-3.941 1.758zm-42.921-.601a55.087 55.087 0 0 1-3.896-1.87l.797-1.504a54.31 54.31 0 0 0 3.775 1.813l-.676 1.561zm49.155-2.354l-.824-1.488a54.512 54.512 0 0 0 3.583-2.165l.936 1.422a56.862 56.862 0 0 1-3.695 2.231zm-55.315-.782a55.978 55.978 0 0 1-3.633-2.337l.975-1.395a54.415 54.415 0 0 0 3.523 2.267l-.865 1.465zm61.137-2.922l-1-1.377a54.359 54.359 0 0 0 3.289-2.588l1.104 1.295a55.98 55.98 0 0 1-3.393 2.67zm5.326-4.392l-1.162-1.244a53.698 53.698 0 0 0 2.948-2.974l1.254 1.15a56.391 56.391 0 0 1-3.04 3.068zm4.748-5.016l-1.307-1.092a54.865 54.865 0 0 0 2.562-3.313l1.385.988a56.105 56.105 0 0 1-2.64 3.417zm4.097-5.562l-1.43-.922a55.394 55.394 0 0 0 2.134-3.604l1.496.809a56.26 56.26 0 0 1-2.2 3.717zm3.381-6.027l-1.533-.74a53.6 53.6 0 0 0 1.672-3.841l1.586.617a56.2 56.2 0 0 1-1.725 3.964zm2.611-6.406l-1.613-.541a54.53 54.53 0 0 0 1.179-4.017l1.65.416a56.175 56.175 0 0 1-1.216 4.142zm1.789-6.669l-1.668-.338a54.38 54.38 0 0 0 .671-4.131l1.689.207a56.247 56.247 0 0 1-.692 4.262zm.95-6.84l-1.697-.129c.105-1.387.159-2.794.159-4.184h1.701a56.95 56.95 0 0 1-.163 4.313zm-1.55-5.485a54.296 54.296 0 0 0-.249-4.178l1.693-.166a56.16 56.16 0 0 1 .257 4.309l-1.701.035zm-.55-6.671a54.627 54.627 0 0 0-.762-4.116l1.66-.373c.315 1.399.579 2.828.785 4.245l-1.683.244zm-1.372-6.552a53.707 53.707 0 0 0-1.267-3.989l1.6-.578a55.873 55.873 0 0 1 1.308 4.116l-1.641.451zm-2.174-6.332a53.99 53.99 0 0 0-1.75-3.799l1.516-.771a55.216 55.216 0 0 1 1.807 3.92l-1.573.65zm-2.938-6.006a54.482 54.482 0 0 0-2.209-3.556l1.41-.953a56.744 56.744 0 0 1 2.277 3.667l-1.478.842zm-3.663-5.601a54.376 54.376 0 0 0-2.628-3.258l1.281-1.119a56.69 56.69 0 0 1 2.712 3.359l-1.365 1.018zm-85.123-2.258l-1.309-1.088a56.824 56.824 0 0 1 2.885-3.213l1.223 1.184a55.246 55.246 0 0 0-2.799 3.117zm80.8-2.854a55.483 55.483 0 0 0-3.01-2.911l1.135-1.268a56.37 56.37 0 0 1 3.104 3.003l-1.229 1.176zm-76.21-2.024l-1.166-1.24a56.317 56.317 0 0 1 3.258-2.834l1.066 1.326c-1.088.875-2.15 1.8-3.158 2.748zm71.29-2.521a53.953 53.953 0 0 0-3.345-2.52l.971-1.398a55.466 55.466 0 0 1 3.45 2.6l-1.076 1.318zm-66.141-1.755l-1.004-1.373a56.709 56.709 0 0 1 3.58-2.412l.896 1.447a54.708 54.708 0 0 0-3.472 2.338zm60.7-2.15a54.257 54.257 0 0 0-3.632-2.088l.791-1.508a56.98 56.98 0 0 1 3.745 2.154l-.904 1.442zm-55.065-1.459l-.828-1.486a55.643 55.643 0 0 1 3.851-1.951l.709 1.547a53.972 53.972 0 0 0-3.732 1.89zm49.18-1.747a53.707 53.707 0 0 0-3.862-1.622l.598-1.594a55.394 55.394 0 0 1 3.985 1.675l-.721 1.541zm-43.149-1.136l-.637-1.578a56.814 56.814 0 0 1 4.063-1.46l.514 1.623a55.01 55.01 0 0 0-3.94 1.415zm36.908-1.315a53.143 53.143 0 0 0-4.03-1.128l.395-1.656c1.395.333 2.794.725 4.159 1.165l-.524 1.619zm-30.556-.8l-.436-1.645a55.394 55.394 0 0 1 4.214-.943l.307 1.674c-1.364.25-2.738.558-4.085.914zm24.069-.854a53.79 53.79 0 0 0-4.139-.62l.186-1.691a55.58 55.58 0 0 1 4.27.64l-.317 1.671zm-17.505-.455l-.229-1.686a56.428 56.428 0 0 1 4.297-.415l.098 1.699c-1.389.08-2.792.215-4.166.402zm10.864-.383a55.182 55.182 0 0 0-3.512-.112l-.673.004-.021-1.701.694-.004c1.212 0 2.43.039 3.621.116l-.109 1.697z"/><linearGradient id="SVGID_4_" gradientUnits="userSpaceOnUse" x1="286.478" y1="388.115" x2="569.577" y2="388.115"><stop offset="0" stop-color="#17c9c0"/><stop offset=".168" stop-color="#00a9d7"/><stop offset=".564" stop-color="#1cd0bb"/><stop offset="1" stop-color="#0fbec8"/></linearGradient><path fill="url(#SVGID_4_)" d="M293.431 479.418h-6.952v-181.38h33.084l215.688-1.225h34.326v181.309h-6.951V303.764h-27.355l-215.688 1.225h-26.152z"/><path class="st6" d="M615.642 479.418l-7.333 22.387c-1.088 3.321-8.122 5.984-15.723 5.984H263.471c-7.601 0-14.635-2.663-15.723-5.984l-7.333-22.387h375.227z"/><linearGradient id="SVGID_5_" gradientUnits="userSpaceOnUse" x1="235.618" y1="493.603" x2="620.438" y2="493.603"><stop offset="0" stop-color="#17c9c0"/><stop offset=".168" stop-color="#00a9d7"/><stop offset=".564" stop-color="#1cd0bb"/><stop offset="1" stop-color="#0fbec8"/></linearGradient><path d="M592.585 511.263H263.471c-7.842 0-17.142-2.621-19.026-8.377l-8.827-26.944h384.819l-8.825 26.944c-1.886 5.756-11.185 8.377-19.027 8.377zm-347.374-28.37l5.84 17.829c.478 1.061 5.29 3.59 12.42 3.59h329.114c7.131 0 11.943-2.529 12.427-3.608l5.834-17.811H245.211z" fill="url(#SVGID_5_)"/><path class="st6" d="M731.988 494.648h53.722a.996.996 0 0 0 .993-.993v-53.722a.996.996 0 0 0-.993-.993h-53.722a.996.996 0 0 0-.993.993v53.722a.995.995 0 0 0 .993.993z"/><path class="st0" d="M785.71 495.648h-53.723a1.996 1.996 0 0 1-1.993-1.993v-53.722c0-1.1.895-1.994 1.993-1.994h53.723c1.099 0 1.993.895 1.993 1.994v53.722a1.996 1.996 0 0 1-1.993 1.993zm-53.716-2h53.716l-.007-53.715-53.716.006.007 53.709z"/><path class="st0" d="M766.581 439.933h2v54.011h-2zM748.205 439.436h2v54.508h-2z"/><path class="st0" d="M731.45 456.612h54.652v1.986H731.45zM731.595 474.989h54.508v1.986h-54.508z"/><path transform="rotate(-180 777.203 472.377)" class="st6" d="M773.203 450.19h8v44.375h-8z"/><path transform="rotate(-180 758.457 479.56)" class="st6" d="M754.457 464.555h8v30.009h-8z"/><path transform="rotate(-180 739.71 483.47)" class="st6" d="M735.71 472.377h8v22.188h-8z"/><path class="st0" d="M782.203 495.564h-10v-46.375h10v46.375zm-8-2h6v-42.375h-6v42.375zM763.457 495.564h-10v-32.009h10v32.009zm-8-2h6v-28.009h-6v28.009zM744.711 495.564h-10v-24.188h10v24.188zm-8-2h6v-20.188h-6v20.188z"/><g><path class="st6" d="M532.123 326.425a3.873 3.873 0 0 1 3.873 3.873v129.13a3.873 3.873 0 0 1-3.873 3.873H324.036a3.873 3.873 0 0 1-3.873-3.873v-129.13a3.873 3.873 0 0 1 3.873-3.873h208.087z"/><path class="st0" d="M532.123 464.801H324.035a5.379 5.379 0 0 1-5.373-5.373V330.297a5.379 5.379 0 0 1 5.373-5.373h208.088a5.379 5.379 0 0 1 5.373 5.373v129.131a5.379 5.379 0 0 1-5.373 5.373zM324.035 327.924a2.375 2.375 0 0 0-2.373 2.373v129.131a2.375 2.375 0 0 0 2.373 2.373h208.088a2.375 2.375 0 0 0 2.373-2.373V330.297a2.375 2.375 0 0 0-2.373-2.373H324.035z"/></g><g><path class="st0" d="M365.865 358.354c13.622 0 24.704 11.082 24.704 24.704s-11.082 24.704-24.704 24.704-24.704-11.082-24.704-24.704c0-13.621 11.082-24.704 24.704-24.704m0-3c-15.301 0-27.704 12.404-27.704 27.704 0 15.301 12.404 27.704 27.704 27.704s27.704-12.404 27.704-27.704-12.403-27.704-27.704-27.704z"/><path class="st0" d="M365.865 367.688c8.475 0 15.371 6.895 15.371 15.371 0 8.475-6.895 15.37-15.371 15.37s-15.371-6.895-15.371-15.37c.001-8.476 6.896-15.371 15.371-15.371m0-3c-10.146 0-18.371 8.225-18.371 18.371s8.225 18.37 18.371 18.37 18.371-8.225 18.371-18.37-8.225-18.371-18.371-18.371z"/><path class="st0" d="M391.629 384.553h-7.602a1.5 1.5 0 0 1 0-3h7.602a1.5 1.5 0 0 1 0 3zM364.355 356.804h3v9.205h-3z"/><path transform="rotate(-45.316 369.703 360.802)" class="st0" d="M364.684 359.303h10.023v3h-10.023z"/><path transform="rotate(-44.368 374.93 362.997)" class="st0" d="M369.978 361.521h9.966v3h-9.966z"/><path transform="rotate(-45.685 379.723 365.644)" class="st0" d="M375.065 364.134h9.295v3h-9.295z"/><path transform="rotate(-45.685 383.365 369.366)" class="st0" d="M378.483 367.855h9.743v3h-9.743z"/><path transform="rotate(-45.001 386.163 373.915)" class="st0" d="M381.182 372.408h9.967v3h-9.967z"/><path transform="rotate(-44.684 388.042 379.346)" class="st0" d="M383.175 377.852h9.743v3h-9.743z"/><path transform="rotate(-34.442 377.712 401.514)" class="st0" d="M376.232 396.503h3.001v10.081h-3.001z"/></g><g><path class="st0" d="M501.232 441.84c-.454 0-.884-.206-1.169-.56-2.312-2.876-7.706-9.584-7.841-9.766a11.228 11.228 0 0 1-2.161-7.762c.489-5.263 4.654-9.502 9.902-10.08 3.184-.347 6.382.666 8.755 2.792a11.24 11.24 0 0 1 2.916 12.574 11.115 11.115 0 0 1-1.312 2.354 1.424 1.424 0 0 1-.114.165l-7.807 9.722a1.495 1.495 0 0 1-1.169.561zm.008-25.237c-.313 0-.63.018-.948.053-3.776.416-6.891 3.587-7.244 7.376a8.238 8.238 0 0 0 1.582 5.692c.169.219 3.701 4.613 6.602 8.222l6.551-8.157c.015-.022.03-.045.047-.066.425-.57.77-1.179 1.026-1.811a8.239 8.239 0 0 0-2.138-9.212 8.144 8.144 0 0 0-5.478-2.097zm-.008 11.881c-2.057 0-3.729-1.674-3.729-3.73s1.673-3.729 3.729-3.729 3.729 1.673 3.729 3.729-1.672 3.73-3.729 3.73zm0-4.46a.73.73 0 1 0 .002 1.46.73.73 0 0 0-.002-1.46zM469.19 360.805v34.564h-34.564v-34.564h34.564m3-3h-40.564v40.564h40.564v-40.564zM518.514 360.805v34.564H483.95v-34.564h34.564m3-3H480.95v40.564h40.564v-40.564zM469.19 410.038v34.564h-34.564v-34.564h34.564m3-3h-40.564v40.564h40.564v-40.564z"/><path class="st0" d="M518.514 410.038v34.564H483.95v-34.564h34.564m3-3H480.95v40.564h40.564v-40.564zM435.487 395.561a1.5 1.5 0 0 1-.857-2.732c.049-.034 4.91-3.425 9.12-7.124 4.379-3.848 9.175-5.497 13.028-6.822l.455-.156c2.828-.976 7.646-4.168 10.233-5.883.725-.479 1.287-.852 1.61-1.047a1.498 1.498 0 0 1 2.06.505c.43.708.204 1.631-.505 2.06-.302.184-.829.534-1.508.983-2.699 1.789-7.724 5.118-10.912 6.218l-.458.157c-3.604 1.239-8.09 2.782-12.023 6.239-4.341 3.814-9.184 7.191-9.388 7.333-.26.182-.559.269-.855.269z"/><path class="st0" d="M458.688 389.116c-1.24 0-2.474-.231-3.535-.826-2.136-1.195-3.075-1.503-5.029-1.648-1.84-.137-3.382.401-3.397.406l-1.02-2.822c.086-.03 2.139-.756 4.64-.576 2.407.18 3.755.614 6.271 2.023 1.627.912 4.663.251 6.23-.576l.553-.294c1.426-.762 2.456-1.313 4.001-1.168l.388.031c1.203.089 1.593.249 3.473 1.423l-1.59 2.545c-1.488-.931-1.523-.933-2.104-.976l-.445-.037c-.613-.049-.99.125-2.309.828l-.567.302c-1.313.691-3.444 1.364-5.56 1.365zM443.396 389.694l-2.725-1.258c2.329-5.047 1.728-5.924 1.583-6.048-.16-.139-.484-.303-.826-.477-.984-.499-2.472-1.252-3.479-3.11-.771-1.421-.342-2.805.003-3.917.278-.897.519-1.673.288-2.514-1.311-4.794-4.783-5.02-4.931-5.026l.092-2.999c.236.006 5.816.224 7.733 7.234.46 1.684.011 3.134-.316 4.192-.248.8-.392 1.305-.231 1.6.561 1.035 1.355 1.438 2.196 1.864.488.247.993.503 1.432.881 2.137 1.845 1.218 5.163-.819 9.578zM450.566 376.983c-1.112 0-1.825-.419-2.241-.797-1.119-1.016-1.119-2.568-1.119-3.314 0-.283.027-.526.057-.757.044-.35.058-.456-.408-1.107-1.297-1.815-1.153-2.888-.539-3.938.756-1.325 2.435-1.22 2.929-1.158l1.921.366c.306.057 1.035-.034 1.274-.185 1.044-1.701 2.355-1.815 3.049-1.726.042.005 4.248.558 4.577 2.795.288 1.948-1.63 2.908-2.899 3.544-.724.361-1.063.838-1.533 1.497a20.16 20.16 0 0 1-.323.445c-.066.095-.21.424-.315.664-.52 1.191-1.486 3.409-3.968 3.648a4.682 4.682 0 0 1-.462.023zm-.218-3.016c.016 0 .131.029.39.007.617-.06.978-.647 1.508-1.861.202-.465.394-.903.664-1.264.096-.128.188-.258.28-.388.554-.777 1.244-1.745 2.636-2.439.142-.071.386-.193.63-.326a9.554 9.554 0 0 0-1.229-.336 1.586 1.586 0 0 0-.249.333c-.957 1.606-3.362 1.725-4.378 1.529l-1.526-.293c.058.094.131.204.224.334 1.062 1.486 1.055 2.341.943 3.228-.015.116-.033.238-.033.381 0 .228 0 .918.139 1.096-.001-.001-.001-.001.001-.001zm-1.391-5.474l-.006.011a.11.11 0 0 0 .006-.011z"/><path transform="rotate(-43.878 484.413 366.298)" class="st0" d="M482.897 364.771h3v3.032h-3z"/><path transform="rotate(-43.87 488.042 370.052)" class="st0" d="M486.499 368.193h3v3.682h-3z"/><path class="st0" d="M492.653 376.374c-.402 0-.795-.162-1.081-.461l-2.102-2.187 2.162-2.078 1.472 1.531 2.038-.596.842 2.879-2.91.851c-.138.041-.28.061-.421.061zM498.927 374.603l-.842-2.879 5.885-1.72.842 2.879-5.885 1.72zm8.827-2.579l-.842-2.879 5.886-1.72.842 2.879-5.886 1.72z"/><path transform="rotate(-16.301 517.52 367.52)" class="st0" d="M516.1 366.08h3.032v2.999H516.1z"/><g><path transform="rotate(-47.716 517.941 391.336)" class="st0" d="M516.45 389.807h2.999v3.032h-2.999z"/><path transform="rotate(-47.724 513.538 387.322)" class="st0" d="M512.038 385.09h3v4.446h-3z"/><path class="st0" d="M509.238 385.432l-1.621-1.474-2.104.613-.84-2.879 2.911-.85a1.5 1.5 0 0 1 1.429.329l2.243 2.039-2.018 2.222zM489.849 389.149l-.842-2.879 5.222-1.525.842 2.879-5.222 1.525zm7.833-2.288l-.842-2.879 5.222-1.525.842 2.879-5.222 1.525z"/><path transform="rotate(-16.301 485.27 388.833)" class="st0" d="M483.844 387.398h3.033v2.999h-3.033z"/></g><circle class="st0" cx="444.497" cy="418.966" r="2.86"/><circle class="st0" cx="460.961" cy="424.687" r="2.86"/><circle class="st0" cx="448.216" cy="437.196" r="2.86"/></g><g><path transform="rotate(-40.035 351.054 438.34)" class="st0" d="M343.471 436.872h15.22v3h-15.22z"/><path transform="rotate(-56.969 368.372 437.06)" class="st0" d="M366.869 431.342h3v11.464h-3z"/><path transform="rotate(-49.912 385.461 431.547)" class="st0" d="M377.439 430.069h16.076v3h-16.076z"/><circle class="st6" cx="342.126" cy="446.112" r="5.835"/><path class="st0" d="M342.126 443.278c1.563 0 2.835 1.272 2.835 2.835s-1.272 2.835-2.835 2.835-2.835-1.272-2.835-2.835 1.272-2.835 2.835-2.835m0-3a5.835 5.835 0 1 0 0 11.67 5.835 5.835 0 0 0 0-11.67z"/><circle class="st6" cx="377.728" cy="441.61" r="5.835"/><path class="st0" d="M377.728 438.775c1.563 0 2.835 1.272 2.835 2.835s-1.272 2.835-2.835 2.835-2.835-1.272-2.835-2.835 1.272-2.835 2.835-2.835m0-3a5.835 5.835 0 1 0 0 11.67 5.835 5.835 0 0 0 0-11.67z"/><g><circle class="st6" cx="393.725" cy="422.051" r="5.835"/><path class="st0" d="M393.725 419.217c1.563 0 2.835 1.272 2.835 2.835s-1.272 2.835-2.835 2.835-2.835-1.272-2.835-2.835 1.272-2.835 2.835-2.835m0-3a5.835 5.835 0 1 0 0 11.67 5.835 5.835 0 0 0 0-11.67z"/></g><g><circle class="st6" cx="360.031" cy="431.252" r="5.835"/><path class="st0" d="M360.031 428.418c1.563 0 2.835 1.272 2.835 2.835s-1.272 2.835-2.835 2.835-2.835-1.272-2.835-2.835 1.272-2.835 2.835-2.835m0-3a5.835 5.835 0 1 0 0 11.67 5.835 5.835 0 0 0 0-11.67z"/></g></g><g><path class="st0" d="M660.162 342.15l-2.845-4.582-2.845-4.582 5.39-.173 5.391-.173-2.545 4.755zM588.443 341.843l2.823-4.595 2.823-4.596 2.568 4.743 2.568 4.742-5.391-.147-5.391-.147"/><path class="st0" d="M658.862 335.318c-.371-17.843-15.171-32.066-33.035-31.688-16.048.334-29.663 12.105-30.997 26.799l-1.992-.182c1.425-15.691 15.896-28.262 32.948-28.617 18.94-.406 34.683 14.7 35.076 33.646l-2 .042zM627.189 370.187c-8.25 0-16.134-2.928-22.436-8.38-6.942-6.007-11.13-14.357-11.791-23.514l1.994-.145c.623 8.624 4.567 16.488 11.105 22.146s14.887 8.428 23.512 7.807c14.211-1.026 25.94-11.028 29.188-24.889l1.947.457c-3.448 14.716-15.903 25.336-30.991 26.426a34.54 34.54 0 0 1-2.528.092z"/><path class="st0" d="M626.67 336.856c-7.505 0-15.583-1.57-15.583-5.018h2c0 .902 4.621 3.018 13.583 3.018 8.961 0 13.582-2.115 13.582-3.018h2c0 3.448-8.077 5.018-15.582 5.018zM626.67 344.197c-7.505 0-15.583-1.57-15.583-5.018h2c0 .902 4.621 3.018 13.583 3.018 8.961 0 13.582-2.115 13.582-3.018h2c0 3.448-8.077 5.018-15.582 5.018z"/><path class="st9" d="M612.099 324.572v22.345"/><path class="st0" d="M610.847 324.572h2.506v22.346h-2.506z"/><g><path class="st9" d="M641.227 324.572v22.345"/><path class="st0" d="M639.975 324.572h2.506v22.346h-2.506z"/></g><path class="st5" d="M612.652 325.345h28.961v21.94h-28.961z"/><path class="st0" d="M626.67 329.515c-7.505 0-15.583-1.57-15.583-5.018s8.078-5.018 15.583-5.018 15.582 1.57 15.582 5.018-8.077 5.018-15.582 5.018zm0-8.035c-8.962 0-13.583 2.115-13.583 3.018s4.621 3.018 13.583 3.018c8.961 0 13.582-2.115 13.582-3.018s-4.621-3.018-13.582-3.018zM626.67 351.539c-7.505 0-15.583-1.57-15.583-5.019h2c0 .902 4.621 3.019 13.583 3.019 8.961 0 13.582-2.116 13.582-3.019h2c0 3.448-8.077 5.019-15.582 5.019z"/></g></g><g><path class="st0" d="M617.505 183.678h5.971v32.878h-5.971z"/><path class="st0" d="M629.42 213.943l-8.93 15.466-8.931-15.466z"/></g><g><path class="st6" d="M462.932 122.549h315.116v61.059H462.932z"/><linearGradient id="SVGID_6_" gradientUnits="userSpaceOnUse" x1="553.121" y1="417.171" x2="834.949" y2="274.019" gradientTransform="matrix(.9863 0 0 1.1211 -64.038 -234.358)"><stop offset="0" stop-color="#17c9c0"/><stop offset=".168" stop-color="#00a9d7"/><stop offset=".564" stop-color="#1cd0bb"/><stop offset="1" stop-color="#0fbec8"/></linearGradient><path d="M780.564 186.125H460.415v-66.092h320.149v66.092zm-315.116-5.034h310.083v-56.025H465.448v56.025z" fill="url(#SVGID_6_)"/></g><g><path class="st0" d="M598.523 154.093v-.037c0-3.716 2.867-6.827 6.922-6.827s6.883 3.073 6.883 6.789v.038c0 3.715-2.866 6.827-6.921 6.827s-6.884-3.074-6.884-6.79zm11.373 0v-.037c0-2.565-1.867-4.696-4.489-4.696s-4.45 2.094-4.45 4.658v.038c0 2.564 1.866 4.677 4.488 4.677 2.621 0 4.451-2.074 4.451-4.64zM616.305 147.455h4.922c4.149 0 7.016 2.848 7.016 6.563v.038c0 3.715-2.866 6.601-7.016 6.601h-4.922v-13.202zm2.319 2.112v8.978h2.603c2.772 0 4.583-1.867 4.583-4.451v-.037c0-2.584-1.811-4.489-4.583-4.489h-2.603zM631.145 158.733l1.395-1.659c1.264 1.094 2.547 1.716 4.168 1.716 1.434 0 2.34-.679 2.34-1.659v-.038c0-.943-.529-1.452-2.98-2.018-2.811-.68-4.395-1.51-4.395-3.942v-.037c0-2.264 1.887-3.829 4.508-3.829 1.924 0 3.451.585 4.791 1.66l-1.246 1.754c-1.188-.887-2.375-1.358-3.582-1.358-1.359 0-2.15.698-2.15 1.565v.038c0 1.019.604 1.471 3.149 2.074 2.791.679 4.225 1.679 4.225 3.866v.038c0 2.471-1.942 3.941-4.716 3.941-2.019 0-3.923-.697-5.507-2.112z"/></g><g><path class="st0" d="M225.791 24.463c-10.483 0-21.096-2.245-21.096-6.537s10.613-6.537 21.096-6.537 21.096 2.245 21.096 6.537-10.613 6.537-21.096 6.537zm0-11.073c-11.657 0-19.096 2.687-19.096 4.537s7.439 4.537 19.096 4.537 19.096-2.687 19.096-4.537-7.439-4.537-19.096-4.537zM225.791 34.58c-10.483 0-21.096-2.245-21.096-6.537h2c0 1.85 7.439 4.537 19.096 4.537s19.096-2.687 19.096-4.537h2c0 4.292-10.613 6.537-21.096 6.537zM225.791 44.696c-10.483 0-21.096-2.245-21.096-6.537h2c0 1.85 7.439 4.537 19.096 4.537s19.096-2.687 19.096-4.537h2c0 4.292-10.613 6.537-21.096 6.537zM225.791 54.813c-10.483 0-21.096-2.245-21.096-6.537h2c0 1.85 7.439 4.537 19.096 4.537s19.096-2.688 19.096-4.537h2c0 4.292-10.613 6.537-21.096 6.537z"/><path class="st0" d="M204.712 18.029h2v30.793h-2zM244.853 18.029h2v30.793h-2z"/></g><g><path class="st0" d="M564.347 143.606c-10.483 0-21.096-2.245-21.096-6.537 0-4.291 10.612-6.536 21.096-6.536s21.097 2.245 21.097 6.536c-.001 4.292-10.614 6.537-21.097 6.537zm0-11.073c-11.657 0-19.096 2.687-19.096 4.536s7.438 4.537 19.096 4.537 19.097-2.688 19.097-4.537-7.44-4.536-19.097-4.536zM564.347 153.722c-10.483 0-21.096-2.245-21.096-6.537h2c0 1.85 7.438 4.537 19.096 4.537s19.097-2.688 19.097-4.537h2c-.001 4.292-10.614 6.537-21.097 6.537zM564.347 163.838c-10.483 0-21.096-2.245-21.096-6.536h2c0 1.85 7.438 4.536 19.096 4.536s19.097-2.687 19.097-4.536h2c-.001 4.291-10.614 6.536-21.097 6.536zM564.347 173.956c-10.483 0-21.096-2.245-21.096-6.537h2c0 1.85 7.438 4.537 19.096 4.537s19.097-2.688 19.097-4.537h2c-.001 4.292-10.614 6.537-21.097 6.537z"/><path class="st0" d="M543.268 137.171h2v30.794h-2zM583.409 137.171h2v30.794h-2z"/></g><g><path class="st0" d="M90.157 154.993H74.459a1 1 0 1 1 0-2h15.698a1 1 0 1 1 0 2zM89.96 158.294H74.459a1 1 0 1 1 0-2H89.96a1 1 0 1 1 0 2zM90.157 161.977H74.459a1 1 0 1 1 0-2h15.698a1 1 0 1 1 0 2zM89.96 165.662H74.459a1 1 0 1 1 0-2H89.96a1 1 0 1 1 0 2zM90.157 169.346H74.459a1 1 0 1 1 0-2h15.698a1 1 0 1 1 0 2z"/><path class="st0" d="M99.248 177.437H69.106a1 1 0 0 1-1-1v-36.191a1 1 0 0 1 1-1h22.923a1 1 0 0 1 1 1v6.234h6.219a1 1 0 0 1 1 1v28.957a1 1 0 0 1-1 1zm-29.142-2h28.142V148.48h-6.219a1 1 0 0 1-1-1v-6.234H70.106v34.191z"/><path class="st0" d="M99.248 148.48a1 1 0 0 1-.706-.292l-7.047-7.023a1 1 0 1 1 1.413-1.416l7.047 7.023a1 1 0 0 1-.707 1.708z"/><path class="st0" d="M103.488 173.253h-3.609v-2h2.609v-27.544l-6.634-6.648H74.346v3.75h-2v-4.75a1 1 0 0 1 1-1h22.923c.266 0 .521.105.708.294l7.219 7.235a1 1 0 0 1 .292.706v28.957a1 1 0 0 1-1 1z"/><path class="st0" d="M107.479 169.331h-3.61v-2h2.61v-27.544l-6.634-6.648H78.337v2.922h-2v-3.922a1 1 0 0 1 1-1h22.923c.266 0 .521.105.708.294l7.219 7.235a1 1 0 0 1 .292.706v28.957a1 1 0 0 1-1 1z"/></g></g></svg>